<svg width="21" height="21" viewBox="0 0 21 21" fill="none" xmlns="http://www.w3.org/2000/svg">
<path d="M19.5068 5.83125L17.6318 3.99063C17.3975 3.75734 17.0804 3.62636 16.7498 3.62636C16.4191 3.62636 16.102 3.75734 15.8677 3.99063L8.62554 11.125L8.61695 11.1164L5.75445 8.36094C5.5196 8.12851 5.20227 7.99852 4.87184 7.9994C4.54142 8.00028 4.22478 8.13195 3.99117 8.36563L2.11617 10.2406C1.88216 10.475 1.75073 10.7926 1.75073 11.1238C1.75073 11.455 1.88216 11.7727 2.11617 12.007L7.71148 17.632C7.82756 17.7481 7.96537 17.8402 8.11705 17.9031C8.26872 17.9659 8.43129 17.9983 8.59547 17.9983C8.75964 17.9983 8.92221 17.9659 9.07389 17.9031C9.22556 17.8402 9.36337 17.7481 9.47945 17.632L19.5107 7.60235C19.627 7.48595 19.7192 7.34774 19.782 7.19564C19.8448 7.04354 19.8769 6.88054 19.8765 6.71599C19.8762 6.55144 19.8433 6.38858 19.7799 6.23676C19.7164 6.08493 19.6236 5.94713 19.5068 5.83125ZM8.59586 16.75L3.00054 11.125L4.87554 9.25L4.88414 9.2586L7.74664 12.0141C7.98071 12.2459 8.29686 12.376 8.62633 12.376C8.9558 12.376 9.27194 12.2459 9.50601 12.0141L16.7552 4.875L18.6255 6.71875L8.59586 16.75Z" fill="#3A4283"/>
</svg>
