<svg width="21" height="21" viewBox="0 0 21 21" fill="none" xmlns="http://www.w3.org/2000/svg">
<g clip-path="url(#clip0_144_619)">
<path d="M11.1251 0.5C11.6876 0.68114 11.8817 1.08071 11.871 1.65153C11.8512 2.76501 11.871 3.87849 11.8642 4.99197C11.8642 5.52474 11.5323 5.89463 11.027 5.94562C10.8045 5.96549 10.5827 5.90135 10.4052 5.76583C10.2277 5.63032 10.1074 5.43325 10.068 5.21345C10.0514 5.10414 10.0435 4.99369 10.0444 4.88313C10.0444 3.80847 10.0573 2.73457 10.0375 1.66067C10.0269 1.09289 10.2141 0.68799 10.7773 0.5H11.1251Z" fill="#3A4283"/>
<path d="M11.865 17.7768C11.865 18.375 11.8703 18.9732 11.865 19.5715C11.8693 19.7683 11.8091 19.9612 11.6935 20.1206C11.5779 20.28 11.4134 20.3972 11.2249 20.4543C11.0471 20.5137 10.8548 20.5143 10.6766 20.4559C10.4984 20.3975 10.3437 20.2833 10.2355 20.1301C10.1411 20.007 10.083 19.8599 10.0681 19.7054C10.0544 18.4184 10.0483 17.1314 10.0681 15.8452C10.0734 15.4684 10.3634 15.1739 10.7165 15.0787C11.0697 14.9836 11.4814 15.1016 11.6786 15.4212C11.7874 15.6034 11.8494 15.8097 11.8589 16.0217C11.8802 16.6085 11.865 17.1946 11.865 17.7768Z" fill="#3A4283"/>
<path d="M18.2863 16.9556C18.2854 17.1225 18.2364 17.2857 18.1453 17.4257C18.0543 17.5656 17.9249 17.6764 17.7726 17.7448C17.4453 17.9024 17.0982 17.8932 16.841 17.6428C15.9125 16.7432 14.9946 15.8307 14.1011 14.8991C13.7844 14.5696 13.8522 14.0345 14.1772 13.7133C14.334 13.5596 14.5413 13.4679 14.7606 13.4553C14.9799 13.4427 15.1963 13.5101 15.3698 13.6448C15.4258 13.6891 15.479 13.7369 15.5289 13.7879C16.3407 14.5967 17.1502 15.4055 17.9575 16.2143C18.16 16.4205 18.2985 16.6534 18.2863 16.9556Z" fill="#3A4283"/>
<path d="M3.62303 3.93102C3.63521 3.70269 3.79656 3.42641 4.12154 3.26354C4.44653 3.10067 4.75021 3.13796 5.04551 3.33204C5.0784 3.35433 5.10899 3.37982 5.13684 3.40815C6.01438 4.28645 6.90182 5.15866 7.76566 6.04762C8.1462 6.43882 8.06553 7.04313 7.63779 7.36964C7.48364 7.48584 7.29627 7.54951 7.10323 7.55129C6.9102 7.55307 6.72169 7.49287 6.56541 7.37953C6.50769 7.33728 6.45324 7.29072 6.40254 7.24025C5.58056 6.41624 4.75807 5.59248 3.93508 4.76898C3.73871 4.57262 3.6139 4.34658 3.62303 3.93102Z" fill="#3A4283"/>
<path d="M3.623 17.0576C3.61767 16.6656 3.7227 16.4487 3.90384 16.2661C4.74409 15.4235 5.58205 14.5802 6.42915 13.743C6.81806 13.3587 7.37975 13.3579 7.73899 13.7187C8.09822 14.0794 8.09518 14.6381 7.71007 15.027C6.87286 15.8733 6.0316 16.7151 5.18628 17.5523C4.8963 17.84 4.54544 17.9237 4.16489 17.7578C3.81099 17.6033 3.63441 17.3148 3.623 17.0576Z" fill="#3A4283"/>
<path d="M3.68476 9.59812C4.30277 9.59812 4.92077 9.59051 5.53802 9.59812C5.72375 9.60498 5.90278 9.6693 6.05041 9.7822C6.19804 9.89511 6.30701 10.051 6.36229 10.2285C6.41757 10.4059 6.41644 10.5961 6.35905 10.7729C6.30166 10.9497 6.19083 11.1043 6.04186 11.2154C5.9008 11.3179 5.73397 11.3791 5.56009 11.392C4.3053 11.4067 3.05026 11.4067 1.79497 11.392C1.31852 11.3874 0.957764 10.9688 0.957764 10.4871C0.957764 10.0053 1.32309 9.6103 1.79497 9.59888C2.42515 9.5829 3.0561 9.59431 3.68704 9.59431L3.68476 9.59812Z" fill="#3A4283"/>
<path d="M18.236 11.4065C17.9362 11.4065 17.637 11.4118 17.3379 11.4065C16.8052 11.395 16.4079 11.0054 16.4102 10.5C16.4124 9.99464 16.8059 9.60496 17.3417 9.59811C17.9339 9.59126 18.5268 9.5905 19.1189 9.59811C19.657 9.60496 20.0421 9.99159 20.0413 10.5038C20.0406 11.016 19.6539 11.395 19.1151 11.4065C18.8213 11.4118 18.5283 11.4065 18.236 11.4065Z" fill="#3A4283"/>
</g>
<defs>
<clipPath id="clip0_144_619">
<rect width="19.0814" height="20" fill="white" transform="translate(0.959229 0.5)"/>
</clipPath>
</defs>
</svg>
