<svg width="21" height="19" viewBox="0 0 21 19" fill="none" xmlns="http://www.w3.org/2000/svg">
<g clip-path="url(#clip0_144_628)">
<path d="M5.2781 2.77149C5.31751 2.49588 5.31684 2.30355 5.02761 2.1469C4.5814 1.90434 4.41039 1.36501 4.54399 0.877903C4.60892 0.641612 4.74595 0.4309 4.93639 0.274523C5.12683 0.118147 5.3614 0.0237245 5.60808 0.00414187C5.6495 0.00414187 5.69091 0.00414187 5.733 0.00414187C8.90768 0.00414187 12.0828 0.00414187 15.2584 0.00414187C15.4213 -0.000570225 15.5834 0.027393 15.7351 0.0863464C15.8867 0.1453 16.0247 0.234023 16.1408 0.347169C16.6752 0.866667 16.6177 1.75629 15.9818 2.14757C15.7146 2.31148 15.6599 2.47803 15.7313 2.77546H19.1861C20.0144 2.77546 20.5221 3.27447 20.4994 4.08544C20.4399 6.23878 19.3712 7.77414 17.5055 8.80322C16.3699 9.43111 15.1308 9.74505 13.8389 9.84882C13.6194 9.86654 13.4101 9.94844 13.2378 10.0841C12.7922 10.406 12.3119 10.679 11.7976 11.0048C11.8846 11.8114 12.0724 12.6042 12.3567 13.365C12.3747 13.4139 12.4843 13.4622 12.5477 13.4575C13.3032 13.41 13.3166 13.6505 13.3072 14.2507C13.2939 15.0491 13.3039 15.8488 13.3039 16.6419C13.5017 16.7134 13.6951 16.7964 13.883 16.8905C14.5136 17.2513 14.8523 17.8012 14.8997 18.5197C14.9204 18.8389 14.7621 19.0041 14.4441 19.0041C11.8167 19.0041 9.19158 19.0041 6.56864 19.0041C6.24734 19.0041 6.10105 18.8442 6.10105 18.5269C6.11642 17.7437 6.67618 17.0015 7.45305 16.7371C7.53053 16.7107 7.60935 16.6882 7.69953 16.6598V14.0544C7.69953 13.564 7.80641 13.443 8.2967 13.4655C8.54653 13.4767 8.67545 13.4119 8.72956 13.1614C8.87518 12.4866 9.03816 11.8145 9.19714 11.1416C9.23655 10.9724 9.17777 10.9024 9.00877 10.8184C8.58364 10.6147 8.17749 10.3743 7.79505 10.1C7.60311 9.95039 7.37066 9.86046 7.12707 9.84155C5.65751 9.70936 4.2621 9.32404 3.01766 8.50976C1.39647 7.45226 0.536777 5.96977 0.500038 4.04115C0.48601 3.28835 0.997015 2.77612 1.75517 2.77215C2.83797 2.77215 3.92143 2.77215 5.0049 2.77215L5.2781 2.77149ZM14.9124 2.39277H6.11107C6.04427 3.22754 6.2587 5.13236 6.53257 6.20441C6.77304 7.14492 7.11171 8.03785 7.67749 8.84353C9.04351 10.7847 11.9713 10.7847 13.3172 8.84023C13.5193 8.55771 13.698 8.25954 13.8516 7.94862C14.6779 6.19251 14.8663 4.31544 14.9124 2.39277ZM14.2017 8.99357C14.2329 8.99944 14.2647 9.00231 14.2965 9.00216C15.5055 8.82437 16.6485 8.4668 17.6584 7.76687C18.941 6.8779 19.647 5.6664 19.6998 4.1046C19.7132 3.70011 19.5762 3.56396 19.1748 3.5633C18.0833 3.5633 16.9923 3.5633 15.9017 3.5633C15.8302 3.5633 15.758 3.57321 15.6759 3.57916C15.6545 3.83957 15.6345 4.08279 15.6091 4.35378H15.891C16.6926 4.35378 17.4926 4.35378 18.291 4.35378C18.7279 4.35378 18.8835 4.55206 18.776 4.96713C18.5495 5.84155 18.0485 6.52893 17.3164 7.05768C16.5703 7.597 15.722 7.90037 14.8316 8.10857C14.7394 8.12814 14.6574 8.17973 14.6004 8.25398C14.4608 8.48597 14.3413 8.73118 14.2017 8.99357ZM6.8051 9.01141C6.65548 8.72456 6.52455 8.46019 6.37826 8.20573C6.34887 8.15484 6.25669 8.13303 6.18923 8.11055C5.67689 7.94334 5.14517 7.81974 4.65287 7.6056C3.45652 7.08412 2.56343 6.26587 2.22276 4.96184C2.11722 4.55735 2.27308 4.35466 2.69035 4.35378C3.4986 4.35378 4.30686 4.35378 5.11511 4.35378H5.39433C5.36895 4.07354 5.34557 3.82503 5.32152 3.56065C4.09578 3.56065 2.89608 3.55735 1.69706 3.56065C1.44256 3.56924 1.30161 3.74043 1.30161 4.01075C1.29864 4.63049 1.42675 5.24398 1.67769 5.81181C2.22543 7.02992 3.19467 7.81115 4.38969 8.35114C5.15591 8.6923 5.97055 8.91499 6.8051 9.01141ZM10.501 1.58643H15.1014C15.1847 1.59186 15.2684 1.58965 15.3512 1.57982C15.5663 1.54082 15.6966 1.40864 15.6966 1.19053C15.6966 0.972417 15.563 0.84089 15.3506 0.801234C15.277 0.792147 15.2028 0.789493 15.1288 0.793302H5.87394C5.7991 0.788651 5.72398 0.790641 5.6495 0.799251C5.43441 0.839568 5.30415 0.970434 5.30415 1.1892C5.30415 1.40798 5.43775 1.5395 5.65017 1.57784C5.73308 1.58733 5.81668 1.58954 5.89999 1.58445L10.501 1.58643ZM8.5158 14.2612V16.6056H12.4856V14.2612H8.5158ZM7.01084 18.1958H13.9932C13.9291 17.976 13.7954 17.7824 13.6118 17.6433C13.4282 17.5042 13.2044 17.4271 12.9732 17.4232C11.3256 17.4126 9.67787 17.4126 8.03018 17.4232C7.54523 17.4265 7.11304 17.7794 7.01084 18.1958ZM15.5296 5.15153L15.046 7.2163C16.253 7.02397 17.6952 5.95523 17.8328 5.15153H15.5296ZM3.16328 5.1588C3.47322 6.20903 4.97551 7.05437 5.95477 7.20441L5.47449 5.1588H3.16328ZM9.52312 13.4357H11.481C11.3033 12.6426 11.1296 11.8686 10.9553 11.0894H10.0475C9.86846 11.8891 9.69412 12.6644 9.52111 13.4357H9.52312Z" fill="#3A4283"/>
<path d="M13.0481 5.18771C13.0016 5.27716 12.9451 5.36118 12.8797 5.4382C12.6433 5.68407 12.3974 5.91672 12.1489 6.14673C12.0501 6.2386 12.004 6.32055 12.0354 6.46662C12.1154 6.81173 12.1723 7.16169 12.2057 7.51421C12.2171 7.6464 12.153 7.84468 12.0534 7.91474C11.9539 7.9848 11.7455 7.99075 11.6206 7.93919C11.308 7.80418 11.0051 7.64805 10.7141 7.47191C10.6501 7.42893 10.5743 7.40639 10.4969 7.40733C10.4195 7.40828 10.3442 7.43266 10.2813 7.4772C10.0007 7.63846 9.70681 7.77528 9.42159 7.92862C9.25459 8.0185 9.06689 8.06741 8.93997 7.9187C8.84248 7.79502 8.79232 7.64121 8.79836 7.48447C8.82575 7.14078 8.91258 6.80238 8.95333 6.45935C8.96131 6.35329 8.92783 6.24825 8.85981 6.16589C8.62268 5.91275 8.34881 5.69068 8.12504 5.42895C8.02486 5.30651 7.97331 5.1521 7.98008 4.99471C7.99745 4.80634 8.18048 4.73034 8.36618 4.7039C8.70417 4.65763 9.04418 4.61864 9.37817 4.55188C9.49026 4.52482 9.58758 4.45621 9.65003 4.36021C9.8177 4.06675 9.93927 3.74686 10.1176 3.46133C10.2071 3.3311 10.3411 3.23722 10.495 3.19696C10.6794 3.15466 10.8163 3.28288 10.8998 3.46133C11.0414 3.75876 11.1997 4.04957 11.338 4.34831C11.3995 4.4805 11.4716 4.55056 11.6299 4.56576C11.9693 4.59815 12.3059 4.65697 12.6433 4.70786C12.9058 4.74686 13.0581 4.90218 13.0481 5.18771ZM9.70815 6.88566C10.2499 6.44084 10.7636 6.45472 11.2786 6.90813C11.2485 6.57766 11.145 6.28751 11.2211 6.04891C11.2973 5.81031 11.5551 5.61732 11.7328 5.40383C11.4656 5.33774 11.1497 5.33774 10.9412 5.18638C10.7328 5.03503 10.6427 4.74157 10.459 4.44349C10.3254 5.14342 9.89652 5.40714 9.22453 5.38731C9.79565 5.76735 9.95263 6.24521 9.70681 6.88566H9.70815Z" fill="#3A4283"/>
<path d="M11.6894 15.0549V15.8163H9.31738V15.0549H11.6894Z" fill="#3A4283"/>
</g>
<defs>
<clipPath id="clip0_144_628">
<rect width="20" height="19" fill="white" transform="translate(0.5)"/>
</clipPath>
</defs>
</svg>
