<svg width="21" height="21" viewBox="0 0 21 21" fill="none" xmlns="http://www.w3.org/2000/svg">
<path d="M19.0871 13.7784C19.4401 14.0537 19.5235 14.4219 19.5035 14.8342C19.4909 15.0964 19.5035 15.3587 19.4999 15.6209C19.4946 15.9026 19.3451 16.0694 19.0698 16.0762C18.6575 16.0862 18.2447 16.0867 17.833 16.0762C17.5708 16.0688 17.4134 15.8968 17.4134 15.6309C17.4092 15.2842 17.4087 14.937 17.4134 14.5903C17.4159 14.4404 17.4508 14.2928 17.5157 14.1576C17.5806 14.0224 17.674 13.9029 17.7895 13.8072C17.673 13.6022 17.5272 13.4191 17.4591 13.2104C17.3111 12.7614 17.5115 12.3051 17.9159 12.0392C17.9683 12.003 18.0339 11.9269 18.0344 11.8687C18.0433 11.254 18.0397 10.6388 18.0397 9.99259C17.6279 10.1672 17.2319 10.3304 16.8428 10.5076C16.8034 10.5255 16.7861 10.6277 16.7856 10.6907C16.7825 11.908 16.7699 13.1259 16.7856 14.3433C16.7998 15.3214 16.3901 16.0216 15.5221 16.468C12.1017 18.2275 8.69878 18.1955 5.31335 16.372C4.57591 15.9729 4.21873 15.3267 4.21611 14.4896C4.21296 13.2392 4.21383 11.9888 4.21873 10.7384C4.21873 10.5811 4.18044 10.4998 4.02624 10.4363C3.12673 10.0623 2.23142 9.67894 1.33559 9.29921C0.80375 9.07472 0.484333 8.63362 0.500592 8.1086C0.519474 7.54215 0.804799 7.15298 1.32824 6.93217C4.08498 5.76744 6.84067 4.60096 9.59532 3.43274C10.1875 3.18099 10.7744 3.16577 11.366 3.41596C14.1402 4.58978 16.9134 5.76464 19.6855 6.94056C20.6244 7.34022 20.7906 8.54393 19.9824 9.11773C19.7259 9.29921 19.4133 9.4083 19.117 9.52579C18.9355 9.59817 18.8605 9.68314 18.8663 9.89293C18.8841 10.5339 18.8705 11.1758 18.8768 11.8173C18.8769 11.8534 18.8843 11.8891 18.8985 11.9222C18.9128 11.9554 18.9336 11.9854 18.9596 12.0103C19.6331 12.4902 19.6939 13.1663 19.0871 13.7784ZM10.5064 12.1928C10.6983 12.1362 10.8982 12.0969 11.0833 12.0192C13.8282 10.8632 16.5718 9.70429 19.3142 8.54236C19.5083 8.46054 19.6551 8.34672 19.6541 8.11333C19.653 7.87993 19.5035 7.76821 19.31 7.68744C18.7614 7.45823 18.2143 7.22588 17.6668 6.99458C15.4765 6.06728 13.286 5.13962 11.0954 4.21162C10.7214 4.05427 10.3564 4.02018 9.97557 4.18119C7.21044 5.35396 4.44391 6.52498 1.67598 7.69425C1.48717 7.77398 1.34765 7.88465 1.3445 8.10756C1.34136 8.34043 1.48454 8.45582 1.68018 8.53817C4.43587 9.70289 7.19139 10.8678 9.94673 12.0329C10.1188 12.1052 10.3086 12.1367 10.5064 12.1918V12.1928ZM15.9475 10.8816C15.852 10.9183 15.7975 10.9372 15.744 10.9598C14.3179 11.5624 12.8891 12.1587 11.4678 12.7724C10.8158 13.0541 10.1848 13.0546 9.5329 12.7724C8.11677 12.1614 6.69434 11.5661 5.27454 10.9671C5.21107 10.9403 5.14551 10.9178 5.06946 10.8884C5.06118 10.9196 5.05522 10.9513 5.05163 10.9834C5.05163 12.1745 5.04481 13.3661 5.05582 14.5567C5.06054 15.0288 5.28398 15.3996 5.70462 15.6277C8.85438 17.3359 12.0162 17.357 15.1901 15.6912C15.7146 15.4164 15.9538 14.991 15.9496 14.4031C15.9417 13.3016 15.9496 12.2039 15.9496 11.1045L15.9475 10.8816ZM18.6654 15.226C18.6654 15.0026 18.6832 14.799 18.6565 14.6018C18.646 14.5274 18.5385 14.4267 18.4624 14.4135C18.4031 14.4036 18.271 14.5048 18.2636 14.5672C18.2385 14.7823 18.2537 15.002 18.2537 15.226H18.6654ZM18.4955 12.6937H18.4089C18.3565 12.7761 18.2584 12.8605 18.2631 12.9392C18.2668 13.0084 18.3764 13.1123 18.454 13.128C18.4813 13.1343 18.5098 13.1337 18.5368 13.1262C18.5638 13.1187 18.5885 13.1045 18.6086 13.085C18.6288 13.0655 18.6437 13.0413 18.652 13.0145C18.6604 12.9878 18.6619 12.9593 18.6565 12.9319C18.6428 12.8474 18.5516 12.7735 18.4955 12.6937Z" fill="#3A4283"/>
</svg>
